# AST/ASF file generated using VICON BodyLanguage
# -----------------------------------------------
:version 1.10
:name VICON
:units
  mass 1.0
  length 0.45
  angle deg
:documentation
   .ast/.asf automatically generated from VICON data using
   VICON BodyBuilder and BodyLanguage model FoxedUp or BRILLIANT.MOD
:root
   order TX TY TZ RX RY RZ
   axis XYZ
   position 0 0 0  
   orientation 0 0 0 
:bonedata
  begin
     id 1 
     name lhipjoint
     direction 0.610259 -0.730986 0.305356 
     length 2.50941 
     axis 0 0 0  XYZ
  end
  begin
     id 2 
     name lfemur
     direction 0.34202 -0.939693 0  
     length 7.48822  
     axis 0 0 20  XYZ
    dof rx ry rz
    limits (-160.0 20.0)
           (-70.0 70.0)
           (-60.0 70.0)
  end
  begin
     id 3 
     name ltibia
     direction 0.34202 -0.939693 0   
     length 7.60141   
     axis 0 0 20   XYZ
    dof rx
    limits (-10.0 170.0)
  end
  begin
     id 4 
     name lfoot
     direction 0.0673488 -0.185039 0.980421   
     length 2.04049   
     axis -90 7.62852e-016 20   XYZ
    dof rx rz
    limits (-45.0 90.0)
           (-70.0 20.0)
  end
  begin
     id 5 
     name ltoes
     direction 1.5356e-011 -4.21729e-011 1   
     length 1.02897   
     axis -90 7.62852e-016 20   XYZ
    dof rx
    limits (-90.0 20.0)
  end
  begin
     id 6 
     name rhipjoint
     direction -0.57612 -0.754205 0.315056   
     length 2.43216  
     axis 0 0 0  XYZ 
  end
  begin
     id 7 
     name rfemur
     direction -0.34202 -0.939693 0   
     length 7.42799   
     axis 0 0 -20   XYZ
    dof rx ry rz
    limits (-160.0 20.0)
           (-70.0 70.0)
           (-70.0 60.0)
  end
  begin
     id 8 
     name rtibia
     direction -0.34202 -0.939693 0   
     length 7.69484   
     axis 0 0 -20   XYZ
    dof rx
    limits (-10.0 170.0)
 end
 begin
     id 9 
     name rfoot
     direction -0.111837 -0.30727 0.945028   
     length 2.15769  
     axis -90 -7.62852e-016 -20   XYZ
    dof rx rz
    limits (-45.0 90.0)
           (-20.0 70.0)
  end
  begin
     id 10 
     name rtoes
     direction -1.53539e-011 -4.21878e-011 1   
     length 1.07391   
     axis -90 -7.62852e-016 -20   XYZ
    dof rx
    limits (-90.0 20.0)
  end
  begin
     id 11 
     name lowerback
     direction 0.00552624 0.990109 -0.140195   
     length 2.12403   
     axis 0 0 0   XYZ
    dof rx ry rz
    limits (-20.0 45.0)
           (-30.0 30.0)
           (-30.0 30.0)
  end
  begin
     id 12 
     name upperback
     direction 0.00361898 0.999976 -0.00584723   
     length 2.13232   
     axis 0 0 0   XYZ
    dof rx ry rz
    limits (-20.0 45.0)
           (-30.0 30.0)
           (-30.0 30.0)
  end
  begin
     id 13 
     name thorax
     direction -0.000331275 0.998253 0.0590847   
     length 2.17688   
     axis 0 0 0   XYZ
    dof rx ry rz
    limits (-20.0 45.0)
           (-30.0 30.0)
           (-30.0 30.0)
  end
  begin
     id 14 
     name lowerneck
     direction -0.0561561 0.979832 0.19177   
     length 1.64159   
     axis 0 0 0   XYZ
    dof rx ry rz
    limits (-20.0 45.0)
           (-30.0 30.0)
           (-30.0 30.0)
  end
  begin
     id 15 
     name upperneck
     direction 0.0827153 0.979385 -0.184293   
     length 1.68939   
     axis 0 0 0   XYZ
    dof rx ry rz
    limits (-20.0 45.0)
           (-30.0 30.0)
           (-30.0 30.0)
  end
  begin
     id 16
     name head
     direction 0.0278583 0.995936 -0.0856488  
     length 1.70207  
     axis 0 0 0   XYZ
    dof rx ry rz
    limits (-20.0 45.0)
           (-30.0 30.0)
           (-30.0 30.0)
  end
  begin
     id 17 
     name lclavicle
     direction 0.950993 0.301131 -0.0702275  
     length 3.41652  
     axis 0 0 0   XYZ
    dof ry rz
    limits (-20.0 10.0)
           (0.0 20.0)
  end
  begin
     id 18 
     name lhumerus
     direction 1 -4.48981e-011 -3.9662e-029   
     length 5.32955   
     axis 180 -30 -90   XYZ
    dof rx ry rz
    limits (-60.0 90.0)
           (-90.0 90.0)
           (-90.0 90.0)
  end
  begin
     id 19
     name lradius
     direction 1 -4.48925e-011 -9.0549e-027   
     length 3.69232   
     axis 180 -30 -90   XYZ
    dof rx
    limits (-10.0 170.0)
  end
  begin
     id 20
     name lwrist
     direction 1 -4.49007e-011 -1.49005e-026   
     length 1.84616   
     axis 9.0955e-015 90 90   XYZ
    dof ry
    limits (-180.0 0.0)
 end
  begin
     id 21 
     name lhand
     direction 1 -4.49016e-011 -2.98023e-026   
     length 0.536598   
     axis 1.90115e-014 90 90   XYZ
    dof rx rz
    limits (-90.0 90.0)
           (-45.0 45.0)
  end
  begin
     id 22 
     name lfingers
     direction 1 -4.48924e-011 -5.9578e-026   
     length 0.432619   
     axis 3.80223e-014 90 90   XYZ
    dof rx
    limits (0.0 90.0)
  end
  begin
     id 23
     name lthumb
     direction 0.707107 -6.34947e-011 0.707107   
     length 0.621157   
     axis -90 45 -3.84942e-014   XYZ
    dof rx rz
    limits (-45.0 45.0)
           (-45.0 45.0)
  end
  begin
     id 24 
     name rclavicle
     direction -0.955495 0.276497 -0.102848   
     length 3.36357  
     axis 0 0 0   XYZ 
    dof ry rz
    limits (-10.0 20.0)
           (-20.0 0.0)
  end
  begin
     id 25 
     name rhumerus
     direction -1 -4.48961e-011 3.30983e-027  
     length 5.23431   
     axis 180 30 90   XYZ
    dof rx ry rz
    limits (-90.0 60.0)
           (-90.0 90.0)
           (-90.0 90.0)
  end
  begin
     id 26 
     name rradius
     direction -1 -4.48965e-011 -6.63263e-027   
     length 3.55301   
     axis 180 30 90   XYZ
    dof rx
    limits (-10.0 170.0)
  end
  begin
     id 27 
     name rwrist
     direction -1 -4.48942e-011 -1.48958e-026   
     length 1.77651   
     axis 9.0955e-015 -90 -90   XYZ
    dof ry
    limits (-180.0 0.0)
  end
  begin
     id 28
     name rhand
     direction -1 -4.48977e-011 -2.97966e-026   
     length 0.772522   
     axis 1.90115e-014 -90 -90   XYZ
    dof rx rz
    limits (-90.0 90.0)
           (-45.0 45.0)
  end
  begin
     id 29
     name rfingers
     direction -1 -4.49135e-011 -5.96389e-026   
     length 0.622827   
     axis 3.80223e-014 -90 -90   XYZ
    dof rx
    limits (0.0 90.0)
  end
  begin
     id 30
     name rthumb
     direction -0.707107 -6.34969e-011 0.707107   
     length 0.894259   
     axis -90 -45 3.84942e-014   XYZ
    dof rx rz
    limits (-45.0 45.0)
           (-45.0 45.0)
  end
:hierarchy
  begin
    root lhipjoint rhipjoint lowerback
    lhipjoint lfemur
    lfemur ltibia
    ltibia lfoot
    lfoot ltoes
    rhipjoint rfemur
    rfemur rtibia
    rtibia rfoot
    rfoot rtoes
    lowerback upperback
    upperback thorax
    thorax lowerneck lclavicle rclavicle
    lowerneck upperneck
    upperneck head
    lclavicle lhumerus
    lhumerus lradius
    lradius lwrist
    lwrist lhand lthumb
    lhand lfingers
    rclavicle rhumerus
    rhumerus rradius
    rradius rwrist
    rwrist rhand rthumb
    rhand rfingers
  end

#!OML:ASF F:\VICON\USERDATA\INSTALL\rory3\rory3.ASF
:FULLY-SPECIFIED
:DEGREES
25
root 11.516 17.6616 -21.657 -168.196 85.4883 -165.551
lowerback 7.60983 1.0447 -2.06417
upperback -0.0843271 1.22006 0.0568385
thorax -4.40155 0.654287 1.0806
lowerneck -21.1917 -5.55169 -11.0551
upperneck 31.2735 -6.30467 8.27611
head 15.1382 -2.63817 4.21416
rclavicle -7.6998e-015 2.78299e-015
rhumerus -32.9326 -12.0475 -84.1966
rradius 26.7475
rwrist 7.72782
rhand -16.0412 8.47115
rfingers 7.12502
rthumb 10.1604 -21.2635
lclavicle -7.6998e-015 2.78299e-015
lhumerus -29.84 1.27876 87.5503
lradius 24.2104
lwrist -8.50395
lhand 0 0
lfingers 0
lthumb 0 0
rfemur -9.61195 0.973858 21.2437
rtibia 36.674
rfoot -19.0752 -5.62289
rtoes 4.06085
lfemur -4.42902 2.02018 -22.7197
ltibia 28.3499
lfoot -17.1584 1.43479
ltoes 1.88263
26
root 11.5394 17.6585 -21.6551 -155.898 85.3924 -153.274
lowerback 7.23447 1.11858 -1.09064
upperback -0.0406126 1.41981 0.308967
thorax -4.13412 0.733122 0.780132
lowerneck -20.8806 -5.56866 -11.2318
upperneck 31.087 -6.34513 8.44119
head 15.0028 -2.65857 4.30121
rclavicle 9.11303e-015 3.18055e-015
rhumerus -33.0587 -12.2015 -84.2164
rradius 26.8743
rwrist 7.73987
rhand -15.9606 8.52371
rfingers 7.12502
rthumb 10.2382 -21.2071
lclavicle 9.11303e-015 3.18055e-015
lhumerus -29.8545 1.41532 87.5632
lradius 24.1827
lwrist -8.72388
lhand 0 0
lfingers 0
lthumb 0 0
rfemur -9.45891 0.711553 22.1822
rtibia 36.4778
rfoot -19.2284 -4.99647
rtoes 3.38861
lfemur -4.60182 2.22455 -21.6707
ltibia 28.8199
lfoot -17.5041 1.61856
ltoes 0.222824
27
root 11.545 17.6556 -21.6469 -150.425 85.125 -147.754
lowerback 7.16894 1.01383 -0.647599
upperback 0.0771694 1.32229 0.378417
thorax -3.96425 0.67628 0.616141
lowerneck -20.7822 -5.37555 -11.1244
upperneck 30.8021 -6.22777 8.79434
head 14.8429 -2.54914 4.44453
rclavicle -5.93248e-015 -6.75868e-015
rhumerus -32.9226 -11.5234 -84.685
rradius 27.0199
rwrist 7.13563
rhand -15.9963 8.49211
rfingers 7.12502
rthumb 10.2037 -21.2404
lclavicle -5.93248e-015 -6.75868e-015
lhumerus -29.7025 1.47429 87.3611
lradius 24.1989
lwrist -8.57651
lhand 0 0
lfingers 0
lthumb 0 0
rfemur -9.30292 0.426762 22.6915
rtibia 36.2783
rfoot -19.4625 -4.59886
rtoes 2.6217
lfemur -4.76843 2.30982 -21.0317
ltibia 29.2875
lfoot -17.7921 1.48203
ltoes 0.582343
28
root 11.5404 17.6583 -21.6386 -149.694 84.946 -146.968
lowerback 7.27699 0.872941 -0.576925
upperback 0.182532 1.14189 0.387326
thorax -3.91137 0.58576 0.60392
lowerneck -20.588 -5.10953 -11.264
upperneck 30.4079 -6.0017 9.40698
head 14.6193 -2.3892 4.7564
rclavicle -1.62817e-014 -2.38542e-015
rhumerus -32.6216 -11.4573 -84.9734
rradius 26.966
rwrist 7.22231
rhand -15.9636 8.53717
rfingers 7.12502
rthumb 10.2353 -21.1938
lclavicle -1.62817e-014 -2.38542e-015
lhumerus -29.5547 1.49099 87.2798
lradius 24.2468
lwrist -8.25664
lhand 0 0
lfingers 0
lthumb 0 0
rfemur -9.17408 0.213885 22.7809
rtibia 36.0771
rfoot -19.762 -4.25868
rtoes 2.84461
lfemur -4.94407 2.32955 -20.8086
ltibia 29.7411
lfoot -18.0539 1.27302
ltoes 1.646
29
root 11.5334 17.6655 -21.6289 -140.977 84.5262 -138.381
lowerback 7.21504 0.863095 0.247782
upperback 0.157681 1.20844 0.633712
thorax -3.89174 0.606178 0.389213
lowerneck -21.1347 -5.56414 -11.208
upperneck 31.0122 -6.45575 8.80179
head 15.055 -2.65094 4.42589
rclavicle 8.98879e-015 -8.34896e-015
rhumerus -32.5067 -11.8342 -84.9471
rradius 26.8809
rwrist 7.7787
rhand -16.0007 8.67371
rfingers 7.12502
rthumb 10.1995 -21.059
lclavicle 8.98879e-015 -8.34896e-015
lhumerus -29.472 1.48905 87.3122
lradius 24.2694
lwrist -8.24254
lhand 0 0
lfingers 0
lthumb 0 0
rfemur -9.37391 0.208353 23.6786
rtibia 36.0616
rfoot -19.9943 -3.74247
rtoes 3.37814
lfemur -5.23675 2.34593 -19.78
ltibia 29.9188
lfoot -18.1453 1.15671
ltoes 2.5574
30
root 11.5288 17.6709 -21.6162 -134.957 84.1432 -132.449
lowerback 7.16713 0.887507 0.833251
upperback 0.15788 1.29848 0.826716
thorax -3.85687 0.642667 0.251403
lowerneck -21.2356 -5.6387 -11.1013
upperneck 31.105 -6.54542 8.64369
head 15.121 -2.69634 4.32471
rclavicle 1.09704e-014 1.59028e-015
rhumerus -32.477 -11.5902 -85.0982
rradius 27.017
rwrist 7.54884
rhand -16.2016 8.50457
rfingers 7.12502
rthumb 10.0057 -21.2376
lclavicle 1.09704e-014 1.59028e-015
lhumerus -29.4167 1.27967 87.3599
lradius 24.3413
lwrist -8.17665
lhand 0 0
lfingers 0
lthumb 0 0
rfemur -9.6049 0.230043 24.357
rtibia 36.2425
rfoot -20.2499 -3.23177
rtoes 3.846
lfemur -5.34973 2.3382 -18.957
ltibia 29.8467
lfoot -18.0512 1.06627
ltoes 3.05417
31
root 11.5343 17.6675 -21.5998 -144.764 84.8354 -141.974
lowerback 7.43294 0.935867 -0.481373
upperback 0.310798 1.24049 0.512452
thorax -3.86818 0.634617 0.667772
lowerneck -21.0937 -5.57712 -10.9528
upperneck 30.9549 -6.51727 8.63427
head 15.0078 -2.67048 4.29378
rclavicle -7.29291e-015 -4.77083e-015
rhumerus -32.427 -11.2895 -85.335
rradius 27.1313
rwrist 7.15625
rhand -16.306 8.23593
rfingers 7.12502
rthumb 9.90491 -21.5111
lclavicle -7.29291e-015 -4.77083e-015
lhumerus -29.3257 1.0673 87.3012
lradius 24.3801
lwrist -8.01198
lhand 0 0
lfingers 0
lthumb 0 0
rfemur -9.3964 -0.183398 22.9461
rtibia 36.5875
rfoot -20.6037 -2.65707
rtoes 2.90895
lfemur -4.84432 2.39952 -20.1623
ltibia 29.6059
lfoot -18.0042 1.00366
ltoes 2.58863
32
root 11.5382 17.661 -21.587 -155.217 85.2908 -152.165
lowerback 7.71004 0.966886 -1.51944
upperback 0.436417 1.18057 0.222623
thorax -3.90722 0.621263 0.954279
lowerneck -20.8088 -5.45653 -11.0253
upperneck 30.7533 -6.40741 8.85814
head 14.8495 -2.60606 4.41657
rclavicle 1.33931e-014 -1.98785e-015
rhumerus -32.3893 -11.1343 -85.4968
rradius 27.1861
rwrist 7.04618
rhand -16.4532 8.011
rfingers 7.12502
rthumb 9.76296 -21.7427
lclavicle 1.33931e-014 -1.98785e-015
lhumerus -29.2011 1.33377 87.1146
lradius 24.328
lwrist -8.24865
lhand 0 0
lfingers 0
lthumb 0 0
rfemur -9.29513 -0.737048 21.6602
rtibia 37.0836
rfoot -20.9328 -2.044
rtoes 1.68886
lfemur -4.27218 2.37091 -21.2182
ltibia 29.1407
lfoot -17.8075 1.1142
ltoes 2.08819
